Coordinates
version=1
nRows=34
nColumns=38
inDegrees=no

Units are S.I. units (second, meters, Newtons, ...)
If the header above contains a line with 'inDegrees', this indicates whether rotational values are in degrees (yes) or radians (no).

endheader
time	pelvis_tilt	pelvis_list	pelvis_rotation	pelvis_tx	pelvis_ty	pelvis_tz	hip_flexion_r	hip_adduction_r	hip_rotation_r	knee_angle_r	ankle_angle_r	subtalar_angle_r	mtp_angle_r	hip_flexion_l	hip_adduction_l	hip_rotation_l	knee_angle_l	ankle_angle_l	subtalar_angle_l	mtp_angle_l	lumbar_extension	lumbar_bending	lumbar_rotation	arm_flex_r	arm_add_r	arm_rot_r	elbow_flex_r	pro_sup_r	wrist_flex_r	wrist_dev_r	arm_flex_l	arm_add_l	arm_rot_l	elbow_flex_l	pro_sup_l	wrist_flex_l	wrist_dev_l
0.53	2.6302	1.38862	-1.23696	1.04085	0.0453313	0.933948	-0.317342	0.0243576	-0.0798264	0.607322	0.344558	0	0	0.251008	-0.0770739	-0.289338	0.0811587	0.280233	0	0	-0.407165	0.0645268	0.161591	0.38848	-0.413235	0.147304	1.16127	0.934837	0	0	0.197015	-0.37473	-0.0581487	1.33459	0.857481	0	0
0.54	2.63097	1.39021	-1.25127	1.04143	0.060007	0.93019	-0.313142	0.00908772	-0.0761849	0.645716	0.342535	0	0	0.253112	-0.0793907	-0.307365	0.115837	0.289504	0	0	-0.402748	0.0563605	0.171159	0.38596	-0.412666	0.14828	1.16084	0.93776	0	0	0.192768	-0.377434	-0.0555036	1.33445	0.862551	0	0
0.55	2.68633	1.39055	-1.31966	1.04136	0.0737508	0.927635	-0.306791	-0.0177162	-0.0728669	0.692145	0.333815	0	0	0.205602	-0.0519482	-0.224263	0.030561	0.196406	0	0	-0.406491	0.0386453	0.176079	0.388759	-0.410171	0.149804	1.15898	0.93845	0	0	0.19097	-0.380745	-0.0548664	1.33521	0.86447	0	0
0.56	2.6763	1.39864	-1.31314	1.04108	0.0865758	0.924159	-0.282608	-0.0279385	-0.0637755	0.746776	0.314784	0	0	0.268029	-0.0731741	-0.310364	0.160468	0.193755	0	0	-0.400598	0.0323825	0.174932	0.391188	-0.407021	0.150882	1.15925	0.938847	0	0	0.189775	-0.385819	-0.0525292	1.33844	0.864346	0	0
0.57	2.74165	1.4069	-1.37989	1.0408	0.0985013	0.922693	-0.255591	-0.0490026	-0.0514507	0.805872	0.282086	0	0	0.294919	-0.0712433	-0.323319	0.222649	0.152921	0	0	-0.401697	0.0121993	0.171997	0.391775	-0.400856	0.14338	1.16105	0.940239	0	0	0.197113	-0.392425	-0.0445368	1.33704	0.863997	0	0
0.58	2.81142	1.41366	-1.44933	1.04092	0.110501	0.921954	-0.226369	-0.0663165	-0.0344569	0.865841	0.238288	0	0	0.330671	-0.0787238	-0.356674	0.31858	0.152811	0	0	-0.403462	-0.00733653	0.171323	0.388652	-0.395828	0.131001	1.16563	0.947179	0	0	0.208028	-0.399497	-0.0313105	1.33286	0.86666	0	0
0.59	2.89571	1.41398	-1.53385	1.04128	0.12253	0.92228	-0.20169	-0.0821712	-0.0124673	0.924203	0.187394	0	0	0.343258	-0.0770831	-0.367524	0.378955	0.148899	0	0	-0.41164	-0.0280753	0.172622	0.386097	-0.392659	0.119035	1.16987	0.955649	0	0	0.220761	-0.405988	-0.0166614	1.32741	0.86706	0	0
0.6	2.95625	1.41107	-1.59537	1.04166	0.134558	0.922856	-0.178915	-0.091764	0.0130105	0.979981	0.135756	0	0	0.345883	-0.0764502	-0.377211	0.422747	0.139698	0	0	-0.421833	-0.0446407	0.174842	0.386327	-0.391917	0.112132	1.17228	0.954733	0	0	0.230704	-0.410855	-0.00572506	1.32432	0.861994	0	0
0.61	2.99454	1.40859	-1.63409	1.0416	0.146511	0.923331	-0.15531	-0.0956826	0.0397408	1.03296	0.0871326	0	0	0.343594	-0.0756249	-0.385288	0.451668	0.124272	0	0	-0.430473	-0.0564393	0.175109	0.390098	-0.392876	0.112379	1.17153	0.952229	0	0	0.235698	-0.413757	-0.00108009	1.32496	0.854776	0	0
0.62	3.01781	1.40973	-1.65592	1.04087	0.158388	0.923421	-0.128354	-0.0950255	0.0660994	1.08354	0.0425658	0	0	0.341806	-0.0738396	-0.390809	0.47055	0.108148	0	0	-0.433974	-0.0633431	0.171935	0.396318	-0.394254	0.118242	1.16738	0.951181	0	0	0.235654	-0.414933	-0.00185886	1.32887	0.851192	0	0
0.63	3.02905	1.41535	-1.66361	1.03953	0.170379	0.923063	-0.0983533	-0.0902914	0.0913591	1.13084	0.0029402	0	0	0.342849	-0.0719823	-0.394855	0.484077	0.0941721	0	0	-0.430999	-0.0654448	0.165992	0.402214	-0.395318	0.12595	1.16196	0.948375	0	0	0.23148	-0.414648	-0.0056922	1.33444	0.851718	0	0
0.64	3.02517	1.42393	-1.65453	1.03783	0.1826	0.922425	-0.068243	-0.0812596	0.115031	1.17288	-0.0241532	0	0	0.345994	-0.0710122	-0.397324	0.494601	0.0815983	0	0	-0.423213	-0.063002	0.159192	0.405688	-0.396568	0.132324	1.15783	0.944397	0	0	0.225066	-0.412947	-0.0105131	1.33991	0.853492	0	0
0.65	3.00194	1.43305	-1.62526	1.03607	0.194998	0.921808	-0.0410412	-0.0680962	0.137635	1.20938	-0.0267669	0	0	0.349664	-0.0714596	-0.396668	0.505084	0.0755115	0	0	-0.413785	-0.0568853	0.153219	0.406366	-0.398166	0.135135	1.15639	0.940431	0	0	0.218182	-0.410093	-0.0151595	1.34389	0.854082	0	0
0.66	2.96033	1.44043	-1.57752	1.03447	0.207444	0.921554	-0.0183886	-0.0523036	0.158788	1.24067	-0.00485281	0	0	0.35244	-0.0731378	-0.390735	0.519581	0.0832061	0	0	-0.405962	-0.0485851	0.148865	0.404541	-0.40031	0.135196	1.15822	0.935939	0	0	0.211704	-0.406806	-0.0193545	1.34654	0.854439	0	0
0.67	2.91454	1.44447	-1.52562	1.03302	0.219779	0.922006	-0.00118473	-0.0371747	0.17699	1.2643	0.0265909	0	0	0.351897	-0.0734718	-0.378336	0.535744	0.0990383	0	0	-0.402189	-0.0403343	0.145761	0.401295	-0.403395	0.133425	1.16299	0.932145	0	0	0.206527	-0.403557	-0.02224	1.34899	0.853672	0	0
0.68	2.88223	1.44533	-1.4873	1.03169	0.231856	0.923349	0.0113571	-0.025785	0.191405	1.27857	0.0553684	0	0	0.346417	-0.0708628	-0.362778	0.548567	0.112067	0	0	-0.402875	-0.034233	0.143246	0.397472	-0.406522	0.130007	1.16957	0.929217	0	0	0.20368	-0.400728	-0.0230583	1.35043	0.852139	0	0
0.69	2.87031	1.44448	-1.46936	1.0304	0.243608	0.925461	0.0212609	-0.0189823	0.202453	1.28426	0.0787856	0	0	0.336708	-0.0655771	-0.34822	0.555882	0.118845	0	0	-0.406592	-0.0309218	0.140162	0.394425	-0.408777	0.126136	1.17597	0.928867	0	0	0.202461	-0.398581	-0.0230206	1.35107	0.851053	0	0
0.7	2.86963	1.44382	-1.46292	1.02911	0.25515	0.927955	0.030945	-0.0155282	0.210816	1.28294	0.0978112	0	0	0.32537	-0.0598437	-0.337866	0.559408	0.123436	0	0	-0.410455	-0.0292968	0.136339	0.39266	-0.410035	0.12326	1.1804	0.930121	0	0	0.201677	-0.396878	-0.0234661	1.35098	0.850795	0	0
0.71	2.8702	1.44456	-1.45773	1.02774	0.266565	0.930508	0.0420445	-0.0140812	0.216566	1.27573	0.113672	0	0	0.314152	-0.0546185	-0.331039	0.560238	0.128996	0	0	-0.412639	-0.0279006	0.131857	0.391654	-0.410918	0.12161	1.18298	0.932206	0	0	0.200834	-0.395271	-0.0245959	1.35039	0.85135	0	0
0.72	2.86604	1.44676	-1.4488	1.02637	0.277861	0.932996	0.0549955	-0.0133974	0.221075	1.2638	0.128578	0	0	0.303349	-0.0503144	-0.32639	0.558896	0.135294	0	0	-0.412729	-0.0261955	0.12777	0.391283	-0.411373	0.120842	1.18345	0.933857	0	0	0.199544	-0.393534	-0.0264878	1.34937	0.85318	0	0
0.73	2.84784	1.45034	-1.42719	1.02502	0.289065	0.935311	0.0698167	-0.0118814	0.224937	1.24789	0.144631	0	0	0.293646	-0.0480284	-0.323833	0.55638	0.141788	0	0	-0.410608	-0.0230002	0.124744	0.391312	-0.412059	0.121558	1.18314	0.935019	0	0	0.197497	-0.391903	-0.0283379	1.34802	0.855716	0	0
0.74	2.80987	1.45483	-1.38701	1.02368	0.300187	0.937406	0.0861939	-0.00891384	0.227729	1.22809	0.162391	0	0	0.2852	-0.0480466	-0.322598	0.55365	0.148993	0	0	-0.406638	-0.0175985	0.123037	0.391507	-0.413675	0.124074	1.18357	0.936412	0	0	0.194525	-0.389816	-0.0305627	1.34683	0.858389	0	0
0.75	2.75352	1.45934	-1.32913	1.02239	0.311214	0.939337	0.103342	-0.00460345	0.229245	1.2048	0.181392	0	0	0.277247	-0.0495613	-0.321493	0.550555	0.157015	0	0	-0.401787	-0.0102913	0.12217	0.392186	-0.415825	0.12767	1.18456	0.938197	0	0	0.190917	-0.387158	-0.0335785	1.34562	0.860364	0	0
0.76	2.68448	1.46294	-1.25877	1.02122	0.322147	0.941183	0.120279	0.000891768	0.229859	1.17852	0.199268	0	0	0.268614	-0.0516336	-0.319502	0.546364	0.165444	0	0	-0.39702	-0.00184878	0.121803	0.393284	-0.418039	0.131647	1.18527	0.939888	0	0	0.187176	-0.384343	-0.0371168	1.34433	0.861934	0	0
0.77	2.61118	1.46521	-1.18388	1.02015	0.333002	0.942985	0.136406	0.00674961	0.229337	1.14971	0.213958	0	0	0.258681	-0.0532916	-0.315388	0.540845	0.17391	0	0	-0.392918	0.00690639	0.12165	0.394165	-0.420058	0.134957	1.1859	0.939898	0	0	0.183761	-0.38157	-0.0407722	1.34365	0.863377	0	0
0.78	2.53868	1.46636	-1.10916	1.01918	0.343768	0.94475	0.152034	0.0124076	0.2274	1.11903	0.225783	0	0	0.247703	-0.0542378	-0.308617	0.533974	0.181999	0	0	-0.389502	0.0154874	0.121405	0.394571	-0.421639	0.136959	1.18696	0.93821	0	0	0.181247	-0.378723	-0.0445763	1.34366	0.864406	0	0
0.79	2.47128	1.46665	-1.03891	1.01829	0.354439	0.946485	0.167433	0.0172881	0.223648	1.08731	0.234493	0	0	0.236021	-0.054709	-0.300603	0.526434	0.189679	0	0	-0.38664	0.0234985	0.120896	0.394525	-0.422897	0.13857	1.18852	0.93635	0	0	0.179474	-0.376218	-0.0480988	1.34352	0.865463	0	0
0.8	2.41335	1.46628	-0.977903	1.01749	0.365	0.948217	0.182726	0.0210407	0.218207	1.05553	0.241551	0	0	0.223473	-0.0550203	-0.293606	0.518486	0.196802	0	0	-0.38442	0.0305116	0.120131	0.394531	-0.423774	0.140213	1.18993	0.934769	0	0	0.178411	-0.374353	-0.0508912	1.34343	0.866589	0	0
0.81	2.36776	1.46541	-0.929314	1.01677	0.375484	0.949975	0.19761	0.0235025	0.211195	1.02379	0.246819	0	0	0.209643	-0.0551684	-0.28892	0.509861	0.203317	0	0	-0.382869	0.0363099	0.119408	0.394635	-0.424145	0.141463	1.19038	0.93323	0	0	0.177907	-0.373051	-0.0532514	1.34348	0.868838	0	0
0.82	2.33199	1.46407	-0.890663	1.0161	0.385925	0.95176	0.212179	0.0250426	0.202334	0.992564	0.251511	0	0	0.194279	-0.0551979	-0.286171	0.500012	0.209359	0	0	-0.381786	0.041351	0.118872	0.394782	-0.424159	0.14226	1.18974	0.931698	0	0	0.178069	-0.371826	-0.0550132	1.34275	0.871411	0	0
0.83	2.3574	1.46357	-0.913285	1.01536	0.396082	0.954247	0.223843	0.0196988	0.192251	0.961457	0.256536	0	0	0.159464	-0.0357355	-0.248226	0.450715	0.200659	0	0	-0.385304	0.0401629	0.117033	0.396082	-0.422503	0.141594	1.18731	0.930696	0	0	0.180731	-0.370995	-0.0564834	1.34032	0.87397	0	0
0.84	2.26524	1.46017	-0.816963	1.01468	0.406683	0.955127	0.242358	0.0272106	0.177098	0.932749	0.262483	0	0	0.161807	-0.0559838	-0.28146	0.477479	0.219986	0	0	-0.379224	0.0527337	0.116932	0.39573	-0.42412	0.143926	1.18657	0.928557	0	0	0.179188	-0.368089	-0.0600286	1.33978	0.879159	0	0
0.85	2.22893	1.45874	-0.777934	1.01411	0.416949	0.956533	0.260176	0.0284799	0.163245	0.906558	0.267883	0	0	0.146426	-0.0564298	-0.280199	0.465838	0.225255	0	0	-0.376622	0.0582004	0.116928	0.395807	-0.424076	0.144017	1.18517	0.928559	0	0	0.180007	-0.36649	-0.0614634	1.33879	0.880228	0	0
0.86	2.19223	1.45622	-0.736777	1.01345	0.427261	0.957868	0.277597	0.0299448	0.145519	0.880716	0.270476	0	0	0.130932	-0.0574715	-0.277156	0.454389	0.230202	0	0	-0.374208	0.0652704	0.115786	0.395681	-0.424156	0.143934	1.18393	0.929149	0	0	0.180922	-0.364411	-0.0629725	1.33773	0.881303	0	0
